<?xml version="1.0" encoding="utf-8"?>
<!-- Generator: Adobe Illustrator 16.0.4, SVG Export Plug-In . SVG Version: 6.00 Build 0)  -->
<!DOCTYPE svg PUBLIC "-//W3C//DTD SVG 1.1//EN" "http://www.w3.org/Graphics/SVG/1.1/DTD/svg11.dtd">
<svg version="1.1" id="Layer_1" xmlns:ev="http://www.w3.org/2001/xml-events"
	 xmlns="http://www.w3.org/2000/svg" xmlns:xlink="http://www.w3.org/1999/xlink" x="0px" y="0px" width="48px" height="48px"
	 viewBox="0 0 48 48" enable-background="new 0 0 48 48" xml:space="preserve">
<path fill="#878C90" d="M44.29,20.66C42.1,12.34,34.96,6.02,26.18,5.11C28.35,2.02,31.94,0,36,0c6.63,0,12,5.37,12,12
	C48,15.41,46.57,18.48,44.29,20.66z M43,26c0,6.5-3.27,12.24-8.25,15.66c0.03,0.03,0.07,0.04,0.11,0.07l3.41,3.41
	c0.59,0.59,0.59,1.54,0,2.12s-1.54,0.59-2.12,0l-3.41-3.41c-0.23-0.23-0.34-0.51-0.39-0.8C29.82,44.29,27,45,24,45
	s-5.82-0.71-8.34-1.95c-0.05,0.29-0.16,0.58-0.39,0.8l-3.41,3.41c-0.59,0.59-1.54,0.59-2.12,0s-0.59-1.54,0-2.12l3.41-3.41
	c0.03-0.03,0.07-0.04,0.11-0.07C8.27,38.24,5,32.5,5,26C5,15.51,13.51,7,24,7S43,15.51,43,26z M24,10c-8.84,0-16,7.16-16,16
	s7.16,16,16,16s16-7.16,16-16S32.84,10,24,10z M32.5,28h-9c-0.83,0-1.5-0.67-1.5-1.5v-10c0-0.83,0.67-1.5,1.5-1.5s1.5,0.67,1.5,1.5
	V25h7.5c0.83,0,1.5,0.67,1.5,1.5S33.33,28,32.5,28z M3.71,20.66C1.43,18.48,0,15.41,0,12C0,5.37,5.37,0,12,0
	c4.06,0,7.65,2.02,9.82,5.11C13.04,6.02,5.9,12.34,3.71,20.66z"/>
</svg>
