<?xml version="1.0" encoding="utf-8"?>
<!-- Generator: Adobe Illustrator 16.0.4, SVG Export Plug-In . SVG Version: 6.00 Build 0)  -->
<!DOCTYPE svg PUBLIC "-//W3C//DTD SVG 1.1//EN" "http://www.w3.org/Graphics/SVG/1.1/DTD/svg11.dtd">
<svg version="1.1" id="Layer_1" xmlns:ev="http://www.w3.org/2001/xml-events"
	 xmlns="http://www.w3.org/2000/svg" xmlns:xlink="http://www.w3.org/1999/xlink" x="0px" y="0px" width="48px" height="48px"
	 viewBox="0 -3.5 48 48" enable-background="new 0 -3.5 48 48" xml:space="preserve">
<path fill="#878C90" d="M45.6,41H2.4C1.075,41,0,39.918,0,38.584V27.988h6.999v6.98h33.985v-6.98H48v10.596
	C48,39.918,46.926,41,45.6,41z M37.2,15.99c-1.578,0-4.66,0-8.196,0c0,3.26,0,7.816,0,10.598c0,1.219-1.249,2.412-2.4,2.412
	c-1.465,0-3.745,0-5.208,0c-1.215,0-2.4-1.155-2.4-2.412c0-2.781,0-7.338,0-10.598c-3.558,0-6.649,0-8.196,0
	c-0.914,0-1.223-0.592-0.609-1.242c3.148-3.337,10.969-11.799,13.2-14.123c0.364-0.379,0.776-0.351,1.154,0.027
	C26.964,3.073,34.92,11.65,37.791,14.748C38.357,15.36,38.066,15.99,37.2,15.99z"/>
</svg>
