<?xml version="1.0" encoding="utf-8"?>
<!-- Generator: Adobe Illustrator 16.0.4, SVG Export Plug-In . SVG Version: 6.00 Build 0)  -->
<!DOCTYPE svg PUBLIC "-//W3C//DTD SVG 1.1//EN" "http://www.w3.org/Graphics/SVG/1.1/DTD/svg11.dtd">
<svg version="1.1" id="Layer_1" xmlns:ev="http://www.w3.org/2001/xml-events"
	 xmlns="http://www.w3.org/2000/svg" xmlns:xlink="http://www.w3.org/1999/xlink" x="0px" y="0px" width="48px" height="48px"
	 viewBox="4 1 48 48" enable-background="new 4 1 48 48" xml:space="preserve">
<path fill="#878C90" d="M51,32.225c-3.789-0.232-17.729-0.815-22.951-1.045c-1.094-0.05-1.316-0.772-0.521-1.57
	c1.329-1.332,3.846-3.854,6.732-6.746c-4.881-11.85-37.206-8.928-22.062,23.865C3.795,39.016,1.189,25.581,7.513,16.085
	c12.08-18.141,29.987-8.18,35.844-2.341c2.594-2.599,4.825-4.836,6.077-6.091C50.188,6.899,50.948,7.152,51,8.176
	c0.264,5.349,0.867,19.256,0.979,23.02C52,31.852,51.643,32.264,51,32.225z"/>
</svg>
