<?xml version="1.0" encoding="utf-8"?>
<!-- Generator: Adobe Illustrator 16.0.4, SVG Export Plug-In . SVG Version: 6.00 Build 0)  -->
<!DOCTYPE svg PUBLIC "-//W3C//DTD SVG 1.1//EN" "http://www.w3.org/Graphics/SVG/1.1/DTD/svg11.dtd">
<svg version="1.1" id="Layer_1" xmlns:ev="http://www.w3.org/2001/xml-events"
	 xmlns="http://www.w3.org/2000/svg" xmlns:xlink="http://www.w3.org/1999/xlink" x="0px" y="0px" width="48px" height="48px"
	 viewBox="0.5 -5 48 48" enable-background="new 0.5 -5 48 48" xml:space="preserve">
<path fill="#878C90" d="M48.218,20.178c-2.916,3.162-10.544,11.336-12.639,13.521c-0.366,0.381-0.808,0.411-1.154,0.026
	c-2.044-2.271-9.723-10.469-12.593-13.547C21.231,19.533,21.518,19,22.432,19c1.643,0,4.856,0,8.488,0
	c0-6.296-5.107-11.4-11.408-11.4S8.105,12.704,8.105,19c0,5.611,4.062,10.268,9.406,11.214c0,0,0,0.003,0,0.004
	c1.229,0.19,2.001,0.714,2.001,2.188c0,1.007,0,3.285,0,3.594c0,1.387-0.353,1.952-1.803,1.909C8.056,37.001,0.5,28.885,0.5,19
	C0.5,8.507,9.012,0,19.512,0c10.501,0,19.013,8.506,19.013,19c3.853,0,7.324,0,9.093,0C48.484,19,48.775,19.572,48.218,20.178z"/>
</svg>
