<?xml version="1.0" encoding="utf-8"?>
<!-- Generator: Adobe Illustrator 16.0.4, SVG Export Plug-In . SVG Version: 6.00 Build 0)  -->
<!DOCTYPE svg PUBLIC "-//W3C//DTD SVG 1.1//EN" "http://www.w3.org/Graphics/SVG/1.1/DTD/svg11.dtd">
<svg version="1.1" id="Layer_1" xmlns:ev="http://www.w3.org/2001/xml-events"
	 xmlns="http://www.w3.org/2000/svg" xmlns:xlink="http://www.w3.org/1999/xlink" x="0px" y="0px" width="48px" height="48px"
	 viewBox="0 0 48 48" enable-background="new 0 0 48 48" xml:space="preserve">
<path fill="#0572CE" d="M47.96,25.94L24.15,2.33c0,0-8.53-6.2-16.4,1.51C7.23,4.35,2.03,9.52,2.03,9.52s-6.11,6.92,2.88,14.85
	c6.59,5.81,22.32,22.14,22.32,22.14s5.44,3.4,9-0.07c3.91-3.81,5.73-5.68,5.73-5.68s3.06-6.29-1.42-10.4
	c-4.87-4.47-17.86-17.71-17.86-17.71s-4.6-4.38-7.49-1.43c-2.88,2.95-2.81,2.79-2.81,2.79s-2.51,3.62,1.44,7.43
	c3.35,3.23,13.39,13.28,13.39,13.28l2.92-2.89L16.74,18.54c0,0-2.32-0.43,0.13-3.08c1.35-1.46,2.89,0.08,2.89,0.08l16.37,16.23
	c0,0,4.02,3.04,2.54,6.03c-0.8,1.62-2.7,3.23-2.61,3.11c-1.6,2.18-4.29,5.43-8.89-0.26C22.93,35.42,7.82,21.48,7.82,21.48
	s-7.47-4.4-1.42-10.4c5.81-5.76,5.83-5.78,5.83-5.78s5.25-4.15,10.48,1.41c2.69,2.86,22.32,22.14,22.32,22.14L47.96,25.94z"/>
</svg>
