<?xml version="1.0" encoding="utf-8"?>
<!-- Generator: Adobe Illustrator 16.0.4, SVG Export Plug-In . SVG Version: 6.00 Build 0)  -->
<!DOCTYPE svg PUBLIC "-//W3C//DTD SVG 1.1//EN" "http://www.w3.org/Graphics/SVG/1.1/DTD/svg11.dtd">
<svg version="1.1" id="Layer_1" xmlns:ev="http://www.w3.org/2001/xml-events"
	 xmlns="http://www.w3.org/2000/svg" xmlns:xlink="http://www.w3.org/1999/xlink" x="0px" y="0px" width="24px" height="24px"
	 viewBox="-299.5 300.5 24 24" enable-background="new -299.5 300.5 24 24" xml:space="preserve">
<path fill="#878C90" d="M-276.5,323.5h-21h-1c-0.55,0-1-0.45-1-1v-1v-18c0-0.55,0.45-1,1-1h1c0.55,0,1,0.45,1,1v17h20
	c0.55,0,1,0.45,1,1v1C-275.5,323.05-275.95,323.5-276.5,323.5z M-279.5,319.5h-3c-0.55,0-1-0.45-1-1v-7c0-0.55,0.45-1,1-1h3
	c0.55,0,1,0.45,1,1v7C-278.5,319.05-278.95,319.5-279.5,319.5z M-285.5,319.5h-3c-0.55,0-1-0.45-1-1v-15c0-0.55,0.45-1,1-1h3
	c0.55,0,1,0.45,1,1v15C-284.5,319.05-284.95,319.5-285.5,319.5z M-291.5,319.5h-3c-0.55,0-1-0.45-1-1v-12c0-0.55,0.45-1,1-1h3
	c0.55,0,1,0.45,1,1v12C-290.5,319.05-290.95,319.5-291.5,319.5z"/>
</svg>
