<?xml version="1.0" encoding="utf-8"?>
<!-- Generator: Adobe Illustrator 16.0.4, SVG Export Plug-In . SVG Version: 6.00 Build 0)  -->
<!DOCTYPE svg PUBLIC "-//W3C//DTD SVG 1.1//EN" "http://www.w3.org/Graphics/SVG/1.1/DTD/svg11.dtd">
<svg version="1.1" id="Layer_1" xmlns:ev="http://www.w3.org/2001/xml-events"
	 xmlns="http://www.w3.org/2000/svg" xmlns:xlink="http://www.w3.org/1999/xlink" x="0px" y="0px" width="16px" height="16px"
	 viewBox="-299.5 300.5 16 16" enable-background="new -299.5 300.5 16 16" xml:space="preserve">
<path fill="#878C90" d="M-284.5,315.5h-14c-0.55,0-1-0.45-1-1v-12c0-0.55,0.45-1,1-1s1,0.45,1,1v11h13c0.55,0,1,0.45,1,1
	S-283.95,315.5-284.5,315.5z M-286.5,312.5h-1c-0.55,0-1-0.45-1-1v-4c0-0.55,0.45-1,1-1h1c0.55,0,1,0.45,1,1v4
	C-285.5,312.05-285.95,312.5-286.5,312.5z M-290.5,312.5h-1c-0.55,0-1-0.45-1-1v-9c0-0.55,0.45-1,1-1h1c0.55,0,1,0.45,1,1v9
	C-289.5,312.05-289.95,312.5-290.5,312.5z M-294.5,312.5h-1c-0.55,0-1-0.45-1-1v-7c0-0.55,0.45-1,1-1h1c0.55,0,1,0.45,1,1v7
	C-293.5,312.05-293.95,312.5-294.5,312.5z"/>
</svg>
