<?xml version="1.0" encoding="utf-8"?>
<!-- Generator: Adobe Illustrator 16.0.4, SVG Export Plug-In . SVG Version: 6.00 Build 0)  -->
<!DOCTYPE svg PUBLIC "-//W3C//DTD SVG 1.1//EN" "http://www.w3.org/Graphics/SVG/1.1/DTD/svg11.dtd">
<svg version="1.1" id="Layer_1" xmlns:ev="http://www.w3.org/2001/xml-events"
	 xmlns="http://www.w3.org/2000/svg" xmlns:xlink="http://www.w3.org/1999/xlink" x="0px" y="0px" width="16px" height="16px"
	 viewBox="-299.5 300.5 16 16" enable-background="new -299.5 300.5 16 16" xml:space="preserve">
<path fill="#878C90" d="M-285.5,314.5h-4c0,1.109-0.9,2-2,2s-2-0.891-2-2h-4c-0.55,0-1-0.45-1-1s0.45-1,1-1h12c0.55,0,1,0.45,1,1
	S-284.95,314.5-285.5,314.5z M-296.44,306.17h0.04c0.4-1.96,1.94-3.5,3.9-3.9v-0.77c0-0.55,0.45-1,1-1s1,0.45,1,1v0.77
	c1.96,0.4,3.51,1.94,3.9,3.9h0.039l0.641,5.33h-11.16L-296.44,306.17z"/>
</svg>
