<?xml version="1.0" encoding="utf-8"?>
<!-- Generator: Adobe Illustrator 16.0.4, SVG Export Plug-In . SVG Version: 6.00 Build 0)  -->
<!DOCTYPE svg PUBLIC "-//W3C//DTD SVG 1.1//EN" "http://www.w3.org/Graphics/SVG/1.1/DTD/svg11.dtd">
<svg version="1.1" id="Layer_1" xmlns:ev="http://www.w3.org/2001/xml-events"
	 xmlns="http://www.w3.org/2000/svg" xmlns:xlink="http://www.w3.org/1999/xlink" x="0px" y="0px" width="24px" height="24px"
	 viewBox="-299.5 300.5 24 24" enable-background="new -299.5 300.5 24 24" xml:space="preserve">
<path fill="#878C90" d="M-278,322.5h-6.68c-0.41,1.16-1.51,2-2.82,2s-2.4-0.84-2.82-2H-297c-0.83,0-1.5-0.67-1.5-1.5
	s0.67-1.5,1.5-1.5h7.28h4.441H-278c0.83,0,1.5,0.67,1.5,1.5S-277.17,322.5-278,322.5z M-294.91,309h0.06
	c0.56-2.77,2.65-4.96,5.35-5.71v-0.79c0-1.1,0.9-2,2-2c1.11,0,2,0.9,2,2v0.79c2.7,0.75,4.79,2.94,5.359,5.71h0.061l1.15,9.5h-17.13
	L-294.91,309z"/>
</svg>
