<?xml version="1.0" encoding="utf-8"?>
<!-- Generator: Adobe Illustrator 16.0.4, SVG Export Plug-In . SVG Version: 6.00 Build 0)  -->
<!DOCTYPE svg PUBLIC "-//W3C//DTD SVG 1.1//EN" "http://www.w3.org/Graphics/SVG/1.1/DTD/svg11.dtd">
<svg version="1.1" id="Layer_1" xmlns="http://www.w3.org/2000/svg" xmlns:xlink="http://www.w3.org/1999/xlink" x="0px" y="0px"
	 width="24px" height="24px" viewBox="0 0 24 24" enable-background="new 0 0 24 24" xml:space="preserve">
<g>
	<g>
		<path fill-rule="evenodd" clip-rule="evenodd" fill="#878C90" d="M16.36,7.61C16.14,7.41,16,7.51,16,7.81V11h-2
			c-0.55,0-1,0.45-1,1s0.45,1,1,1h2v3.2c0,0.28,0.16,0.39,0.36,0.21c1.02-0.9,3.78-3.48,4.49-4.22c0.12-0.12,0.13-0.26,0.01-0.38
			C20.1,11.1,17.41,8.56,16.36,7.61z M10,4H5C4.45,4,4,4.45,4,5v14c0,0.55,0.45,1,1,1h5c0.55,0,1-0.45,1-1V5C11,4.45,10.55,4,10,4z
			 M21,0H3C1.34,0,0,1.34,0,3v18c0,1.66,1.34,3,3,3h18c1.66,0,3-1.34,3-3V3C24,1.34,22.66,0,21,0z M22,20c0,1.1-0.9,2-2,2H4
			c-1.1,0-2-0.9-2-2V4c0-1.1,0.9-2,2-2h16c1.11,0.03,2,1.04,2,2V20z"/>
	</g>
</g>
</svg>
