<?xml version="1.0" encoding="utf-8"?>
<!-- Generator: Adobe Illustrator 16.0.4, SVG Export Plug-In . SVG Version: 6.00 Build 0)  -->
<!DOCTYPE svg PUBLIC "-//W3C//DTD SVG 1.1//EN" "http://www.w3.org/Graphics/SVG/1.1/DTD/svg11.dtd">
<svg version="1.1" id="Layer_1" xmlns:ev="http://www.w3.org/2001/xml-events"
	 xmlns="http://www.w3.org/2000/svg" xmlns:xlink="http://www.w3.org/1999/xlink" x="0px" y="0px" width="16px" height="16px"
	 viewBox="-299.5 300.5 16 16" enable-background="new -299.5 300.5 16 16" xml:space="preserve">
<path fill="#878C90" d="M-285.5,316.5h-12c-1.1,0-2-0.891-2-2v-12c0-1.1,0.9-2,2-2h12c1.109,0,2,0.9,2,2v12
	C-283.5,315.609-284.391,316.5-285.5,316.5z M-284.5,302.83c0-0.73-0.6-1.33-1.33-1.33h-11.34c-0.73,0-1.33,0.6-1.33,1.33v11.33
	c0,0.74,0.6,1.34,1.33,1.34h11.33c0.74,0,1.34-0.6,1.34-1.33V302.83z M-286.5,309.5h-3.02c0,0.77,0,1.45,0,1.8
	c0,0.19-0.11,0.261-0.24,0.14c-0.68-0.6-2.54-2.319-3.02-2.81c-0.08-0.09-0.09-0.18-0.01-0.25c0.51-0.479,2.319-2.18,3.03-2.81
	c0.15-0.131,0.24-0.061,0.24,0.14c0,0.34,0,1.021,0,1.79h3.02c0.55,0,1,0.45,1,1S-285.95,309.5-286.5,309.5z M-295.5,314.5h-1
	c-0.55,0-1-0.45-1-1v-10c0-0.55,0.45-1,1-1h1c0.55,0,1,0.45,1,1v10C-294.5,314.05-294.95,314.5-295.5,314.5z"/>
</svg>
