<?xml version="1.0" encoding="utf-8"?>
<!-- Generator: Adobe Illustrator 16.0.4, SVG Export Plug-In . SVG Version: 6.00 Build 0)  -->
<!DOCTYPE svg PUBLIC "-//W3C//DTD SVG 1.1//EN" "http://www.w3.org/Graphics/SVG/1.1/DTD/svg11.dtd">
<svg version="1.1" id="Layer_1" xmlns:ev="http://www.w3.org/2001/xml-events"
	 xmlns="http://www.w3.org/2000/svg" xmlns:xlink="http://www.w3.org/1999/xlink" x="0px" y="0px" width="24px" height="24px"
	 viewBox="-299.5 300.5 24 24" enable-background="new -299.5 300.5 24 24" xml:space="preserve">
<path fill="#878C90" d="M-278.5,324.5h-18c-1.66,0-3-1.34-3-3v-18c0-1.66,1.34-3,3-3h18c1.66,0,3,1.34,3,3v18
	C-275.5,323.16-276.84,324.5-278.5,324.5z M-277.5,304.5c0-0.96-0.891-1.97-2-2h-16c-1.1,0-2,0.9-2,2v16c0,1.109,0.9,2,2,2h16
	c1.109,0,2-0.891,2-2V304.5z M-279.5,313.5h-6.01c0,1.359,0,2.6,0,3.2c0,0.28-0.16,0.39-0.36,0.21c-1.03-0.9-3.82-3.48-4.53-4.221
	c-0.12-0.119-0.13-0.26-0.01-0.379c0.76-0.711,3.48-3.25,4.54-4.211c0.22-0.189,0.36-0.1,0.36,0.2c0,0.591,0,1.83,0,3.19h6.01
	c0.55,0,1,0.449,1,1C-278.5,313.04-278.95,313.5-279.5,313.5z M-292.5,320.5h-2c-0.55,0-1-0.45-1-1v-14c0-0.55,0.45-1,1-1h2
	c0.55,0,1,0.45,1,1v14C-291.5,320.05-291.95,320.5-292.5,320.5z"/>
</svg>
