<?xml version="1.0" encoding="utf-8"?>
<!-- Generator: Adobe Illustrator 16.0.4, SVG Export Plug-In . SVG Version: 6.00 Build 0)  -->
<!DOCTYPE svg PUBLIC "-//W3C//DTD SVG 1.1//EN" "http://www.w3.org/Graphics/SVG/1.1/DTD/svg11.dtd">
<svg version="1.1" id="Layer_1" xmlns:ev="http://www.w3.org/2001/xml-events"
	 xmlns="http://www.w3.org/2000/svg" xmlns:xlink="http://www.w3.org/1999/xlink" x="0px" y="0px" width="16px" height="16px"
	 viewBox="-299.5 300.5 16 16" enable-background="new -299.5 300.5 16 16" xml:space="preserve">
<path fill="#878C90" d="M-285.5,316.5h-12c-1.1,0-2-0.891-2-2v-12c0-1.1,0.9-2,2-2h12c1.109,0,2,0.9,2,2v12
	C-283.5,315.609-284.391,316.5-285.5,316.5z M-284.5,302.83c0-0.73-0.6-1.33-1.33-1.33h-11.34c-0.73,0-1.33,0.6-1.33,1.33v11.33
	c0,0.74,0.6,1.34,1.33,1.34h11.33c0.74,0,1.34-0.6,1.34-1.33V302.83z M-289.25,311.439c-0.13,0.121-0.24,0.051-0.24-0.14
	c0-0.35,0-1.03,0-1.8h-2.01c-0.55,0-1-0.45-1-1s0.45-1,1-1h2.01c0-0.77,0-1.45,0-1.79c0-0.2,0.1-0.26,0.24-0.14
	c0.7,0.63,2.5,2.33,3,2.81c0.08,0.08,0.07,0.17-0.01,0.25C-286.73,309.12-288.57,310.84-289.25,311.439z M-294.5,314.5h-2
	c-0.55,0-1-0.45-1-1v-10c0-0.55,0.45-1,1-1h2c0.55,0,1,0.45,1,1v10C-293.5,314.05-293.95,314.5-294.5,314.5z"/>
</svg>
