<?xml version="1.0" encoding="utf-8"?>
<!-- Generator: Adobe Illustrator 16.0.4, SVG Export Plug-In . SVG Version: 6.00 Build 0)  -->
<!DOCTYPE svg PUBLIC "-//W3C//DTD SVG 1.1//EN" "http://www.w3.org/Graphics/SVG/1.1/DTD/svg11.dtd">
<svg version="1.1" id="Layer_1" xmlns:ev="http://www.w3.org/2001/xml-events"
	 xmlns="http://www.w3.org/2000/svg" xmlns:xlink="http://www.w3.org/1999/xlink" x="0px" y="0px" width="48px" height="48px"
	 viewBox="-2.5 0.5 48 48" enable-background="new -2.5 0.5 48 48" xml:space="preserve">
<path fill="#0572CE" d="M39.21,48.51H3.78C1.69,48.51,0,46.63,0,44.61V8.14c0-2.02,1.69-3.65,3.78-3.65h4.16
	c0,0,0.03,2.94,0.06,4.26c0.03,1.34,0.37,1.83,1.16,1.83c1.16,0,4.7,0,5.9,0c0.85,0,2.03-0.2,2-1.83c-0.03-1.72-0.12-4.21-0.12-4.21
	H26c0,0-0.08,3.55,0.06,4.19c0.27,1.23,1.22,1.78,1.95,1.77c1.18-0.01,3.77-0.02,4.91,0.01c1.6,0.05,2.1-1.44,2.09-1.84
	c-0.01-0.36,0-4.13,0-4.13h4.2c2.09,0,3.78,1.64,3.78,3.65v36.67C42.98,46.88,41.29,48.51,39.21,48.51z M38.98,20.43H4.01v20.85
	c0,2.02,1.26,3.19,3.35,3.19h28.18c2.09,0,3.43-1.18,3.43-3.19V20.43z M27.98,0.53h0.47V0.5h4.1v0.03h0.36v7.96h-4.93V0.53z
	 M14.46,8.49h-4V8.48h-0.38V0.5h4.85v7.98L14.46,8.49L14.46,8.49z"/>
<g>
	<path fill="#0572CE" d="M17.23,25.9V39H13.6v-8.59c-0.59,0.45-1.15,0.81-1.7,1.08s-1.23,0.54-2.06,0.79v-2.94
		c1.22-0.39,2.17-0.86,2.84-1.42s1.2-1.23,1.58-2.04H17.23z"/>
	<path fill="#0572CE" d="M27.27,36.59h-6.52v-2.94l6.52-7.75h3.12v7.92h1.62v2.78h-1.62V39h-3.12V36.59z M27.27,33.81v-4.05
		l-3.45,4.05H27.27z"/>
</g>
</svg>
