<?xml version="1.0" encoding="utf-8"?>
<!-- Generator: Adobe Illustrator 16.0.4, SVG Export Plug-In . SVG Version: 6.00 Build 0)  -->
<!DOCTYPE svg PUBLIC "-//W3C//DTD SVG 1.1//EN" "http://www.w3.org/Graphics/SVG/1.1/DTD/svg11.dtd">
<svg version="1.1" id="Layer_1" xmlns:ev="http://www.w3.org/2001/xml-events"
	 xmlns="http://www.w3.org/2000/svg" xmlns:xlink="http://www.w3.org/1999/xlink" x="0px" y="0px" width="24px" height="24px"
	 viewBox="-299.5 300.5 24 24" enable-background="new -299.5 300.5 24 24" xml:space="preserve">
<path fill="#878C90" d="M-278.32,324.49h-18.4c-1.01,0-1.78-1.021-1.78-2.021v-18.14c0-1,0.77-1.811,1.78-1.811h2.22
	c0-0.01,0,0.95,0,2.211c0,0.67,0.5,0.76,0.88,0.76c0.56,0,1.58,0,2.17,0c0.41,0,0.98,0.05,0.97-0.76
	c-0.02-0.851-0.02-2.221-0.02-2.221h5.99c0,0,0.01,1.93,0.01,2.25c0,0.43,0.57,0.73,0.92,0.721c0.57,0,1.67-0.041,2.221-0.03
	c0.76,0.03,0.869-0.521,0.859-0.72c0-0.181,0-2.221,0-2.221h2.18c1.01,0,1.82,0.811,1.82,1.811v18.14
	C-276.5,323.47-277.32,324.49-278.32,324.49z M-279.52,310.49h-16c0,0,0,7.609,0,8.96c0,2.01,2.06,2.06,2.06,2.06s10.56,0,11.931,0
	c1.979,0,2-2.06,2-2.06v-8.96H-279.52z M-283.54,315.38c-0.271,0.42-0.5,0.87-0.69,1.351c-0.189,0.479-0.33,0.959-0.43,1.449
	s-0.119,0.891-0.119,1.32h-1.82c0.08-0.95,0.22-1.561,0.619-2.43c0.4-0.881,0.83-1.83,1.48-2.561h-3v-2h5.02v1.811
	C-282.85,314.6-283.27,314.96-283.54,315.38z M-290.53,315.51h-1.98v-1.04c0.24,0.011,0.44-0.01,0.66-0.05
	c0.22-0.04,0.42-0.109,0.6-0.21s0.33-0.229,0.45-0.39c0.12-0.16,0.2-1.101,0.24-1.351h2.06v7.03h-2.03V315.51z M-283.5,300.5h1.99v4
	h-1.99V300.5z M-293.5,300.5h1.99v4h-1.99V300.5z"/>
</svg>
