<?xml version="1.0" encoding="utf-8"?>
<!-- Generator: Adobe Illustrator 16.0.4, SVG Export Plug-In . SVG Version: 6.00 Build 0)  -->
<!DOCTYPE svg PUBLIC "-//W3C//DTD SVG 1.1//EN" "http://www.w3.org/Graphics/SVG/1.1/DTD/svg11.dtd">
<svg version="1.1" id="Layer_1" xmlns:ev="http://www.w3.org/2001/xml-events"
	 xmlns="http://www.w3.org/2000/svg" xmlns:xlink="http://www.w3.org/1999/xlink" x="0px" y="0px" width="48px" height="48px"
	 viewBox="0 -4 48 48" enable-background="new 0 -4 48 48" xml:space="preserve">
<path fill="#878C90" d="M47.7,12.04l-7.48,15.63C39.95,28.44,39.21,29,38.34,29H15c-0.35,0-0.68-0.1-0.96-0.26
	c-0.03-0.02-0.06-0.03-0.09-0.05c-0.04-0.02-0.08-0.05-0.11-0.08c-0.37-0.25-0.67-0.62-0.81-1.08L6.6,6H2.5C1.12,6,0,4.88,0,3.5
	S1.12,1,2.5,1h5c0.04,0,0.08,0.01,0.12,0.01c0.81-0.07,1.58,0.36,1.95,1.09C9.82,2.47,9.96,2.9,9.99,3.36L11.67,9h34.09
	c0.36-0.04,0.75,0.01,1.1,0.19c0.04,0.02,0.05,0.05,0.09,0.07c0.19,0.1,0.36,0.23,0.5,0.38c0.03,0.03,0.05,0.06,0.08,0.09
	c0.14,0.17,0.26,0.37,0.34,0.59c0,0.01,0.01,0.02,0.01,0.04C47.95,10.56,48,10.77,48,11C48,11.38,47.89,11.73,47.7,12.04z M18,25h19
	c1.11,0,2-0.89,2-2s-0.89-2-2-2H18c-1.1,0-2,0.89-2,2S16.9,25,18,25z M41,13H16c-1.1,0-2,0.9-2,2s0.9,2,2,2h25c1.11,0,2-0.9,2-2
	S42.11,13,41,13z M19.5,31c2.48,0,4.5,2.02,4.5,4.5S21.98,40,19.5,40S15,37.98,15,35.5S17.02,31,19.5,31z M34.5,31
	c2.48,0,4.5,2.02,4.5,4.5S36.98,40,34.5,40S30,37.98,30,35.5S32.02,31,34.5,31z"/>
</svg>
