<?xml version="1.0" encoding="utf-8"?>
<!-- Generator: Adobe Illustrator 16.0.4, SVG Export Plug-In . SVG Version: 6.00 Build 0)  -->
<!DOCTYPE svg PUBLIC "-//W3C//DTD SVG 1.1//EN" "http://www.w3.org/Graphics/SVG/1.1/DTD/svg11.dtd">
<svg version="1.1" id="Layer_1" xmlns:ev="http://www.w3.org/2001/xml-events"
	 xmlns="http://www.w3.org/2000/svg" xmlns:xlink="http://www.w3.org/1999/xlink" x="0px" y="0px" width="48px" height="48px"
	 viewBox="0 0 48 48" enable-background="new 0 0 48 48" xml:space="preserve">
<path fill="#0572CE" d="M24,48C10.75,48,0,37.25,0,24S10.75,0,24,0s24,10.75,24,24S37.25,48,24,48z M26,3.1V4c0,1.1-0.89,2-2,2
	c-1.1,0-2-0.9-2-2V3.1C12,4.05,4.04,12,3.1,22H4c1.1,0,2,0.9,2,2c0,1.11-0.9,2-2,2H3.1C4.04,36,12,43.95,22,44.9V44
	c0-1.11,0.9-2,2-2c1.11,0,2,0.89,2,2v0.9C36,43.95,43.96,36,44.9,26H44c-1.11,0-2-0.89-2-2c0-1.1,0.89-2,2-2h0.9
	C43.96,12,36,4.05,26,3.1z M38.7,15.87L27,23.99c0,0,0,0,0,0.01c0,1.66-1.34,3-3,3c-1.55,0-2.81-1.18-2.97-2.68l-8.68-5.76
	c-0.72-0.42-0.96-1.33-0.55-2.05c0.42-0.72,1.33-0.96,2.05-0.55l8.43,5.59C22.77,21.21,23.36,21,24,21c0.92,0,1.73,0.42,2.28,1.07
	l11.42-7.93c0.48-0.28,1.09-0.11,1.37,0.37C39.34,14.98,39.17,15.59,38.7,15.87z"/>
</svg>
