<?xml version="1.0" encoding="utf-8"?>
<!-- Generator: Adobe Illustrator 16.0.4, SVG Export Plug-In . SVG Version: 6.00 Build 0)  -->
<!DOCTYPE svg PUBLIC "-//W3C//DTD SVG 1.1//EN" "http://www.w3.org/Graphics/SVG/1.1/DTD/svg11.dtd">
<svg version="1.1" id="Layer_1" xmlns:ev="http://www.w3.org/2001/xml-events"
	 xmlns="http://www.w3.org/2000/svg" xmlns:xlink="http://www.w3.org/1999/xlink" x="0px" y="0px" width="24px" height="24px"
	 viewBox="-299.5 300.5 24 24" enable-background="new -299.5 300.5 24 24" xml:space="preserve">
<path fill="#878C90" d="M-287.5,324.5c-6.63,0-12-5.37-12-12s5.37-12,12-12s12,5.37,12,12S-280.87,324.5-287.5,324.5z
	 M-286.5,302.05v0.45c0,0.55-0.45,1-1,1s-1-0.45-1-1v-0.45c-5,0.47-8.98,4.45-9.45,9.45h0.45c0.55,0,1,0.45,1,1s-0.45,1-1,1h-0.45
	c0.47,5,4.45,8.98,9.45,9.45v-0.45c0-0.55,0.45-1,1-1s1,0.45,1,1v0.45c5-0.47,8.98-4.45,9.45-9.45h-0.45c-0.55,0-1-0.45-1-1
	s0.45-1,1-1h0.45C-277.52,306.5-281.5,302.52-286.5,302.05z M-280.15,308.43l-5.85,4.07l0,0c0,0.83-0.67,1.5-1.5,1.5
	c-0.77,0-1.38-0.58-1.47-1.33l-4.36-2.89c-0.35-0.21-0.48-0.671-0.27-1.03s0.67-0.48,1.02-0.27l4.24,2.81
	c0.24-0.17,0.52-0.29,0.84-0.29c0.46,0,0.85,0.22,1.13,0.54l5.72-3.97c0.24-0.141,0.541-0.061,0.68,0.18
	C-279.83,307.99-279.91,308.29-280.15,308.43z"/>
</svg>
