<?xml version="1.0" encoding="utf-8"?>
<!-- Generator: Adobe Illustrator 16.0.4, SVG Export Plug-In . SVG Version: 6.00 Build 0)  -->
<!DOCTYPE svg PUBLIC "-//W3C//DTD SVG 1.1//EN" "http://www.w3.org/Graphics/SVG/1.1/DTD/svg11.dtd">
<svg version="1.1" id="Layer_1" xmlns:ev="http://www.w3.org/2001/xml-events"
	 xmlns="http://www.w3.org/2000/svg" xmlns:xlink="http://www.w3.org/1999/xlink" x="0px" y="0px" width="16px" height="16px"
	 viewBox="-299.5 300.5 16 16" enable-background="new -299.5 300.5 16 16" xml:space="preserve">
<path fill="#878C90" d="M-291.5,316.5c-4.42,0-8-3.58-8-8s3.58-8,8-8s8,3.58,8,8S-287.08,316.5-291.5,316.5z M-290.52,301.6
	c-0.051,0.5-0.461,0.9-0.98,0.9c-0.52,0-0.93-0.4-0.98-0.9c-3.08,0.431-5.49,2.851-5.93,5.92c0.51,0.051,0.91,0.461,0.91,0.98
	s-0.4,0.93-0.91,0.98c0.44,3.069,2.85,5.479,5.93,5.92c0.05-0.5,0.46-0.9,0.98-0.9c0.52,0,0.93,0.4,0.98,0.9
	c3.069-0.431,5.49-2.851,5.93-5.92c-0.51-0.051-0.91-0.461-0.91-0.98s0.4-0.93,0.91-0.98
	C-285.029,304.45-287.45,302.03-290.52,301.6z M-290.51,308.55c-0.03,0.53-0.45,0.95-0.99,0.95c-0.51,0-0.92-0.391-0.98-0.891
	l-2.9-1.92c-0.24-0.14-0.33-0.449-0.19-0.689c0.14-0.24,0.44-0.32,0.68-0.18l2.82,1.869c0.17-0.109,0.36-0.189,0.57-0.189
	c0.32,0,0.59,0.16,0.779,0.391l3.121-2.021c0.16-0.09,0.359-0.04,0.459,0.12c0.101,0.16,0.041,0.359-0.119,0.46L-290.51,308.55z"/>
</svg>
