<?xml version="1.0" encoding="utf-8"?>
<!-- Generator: Adobe Illustrator 16.0.4, SVG Export Plug-In . SVG Version: 6.00 Build 0)  -->
<!DOCTYPE svg PUBLIC "-//W3C//DTD SVG 1.1//EN" "http://www.w3.org/Graphics/SVG/1.1/DTD/svg11.dtd">
<svg version="1.1" id="Layer_1" xmlns:ev="http://www.w3.org/2001/xml-events"
	 xmlns="http://www.w3.org/2000/svg" xmlns:xlink="http://www.w3.org/1999/xlink" x="0px" y="0px" width="24px" height="24px"
	 viewBox="-299.5 300.5 24 24" enable-background="new -299.5 300.5 24 24" xml:space="preserve">
<path fill="#878C90" d="M-287.5,324.5c-6.63,0-12-5.37-12-12s5.37-12,12-12c6.62,0,12,5.37,12,12
	C-275.5,319.12-280.88,324.5-287.5,324.5z M-287.5,301.97c-5.8,0-10.5,4.7-10.5,10.5s4.7,10.5,10.5,10.5s10.5-4.7,10.5-10.5
	S-281.7,301.97-287.5,301.97z M-283.52,313.46h-0.44c0-0.05,0.01-0.101,0.01-0.16c0-2.21-1.51-4.06-3.54-4.59v-0.26l7.98-1.95
	L-283.52,313.46z M-285.51,312.53c0,1.11-0.9,1.97-2.01,1.97s-2.01-0.859-2.01-1.97s0.9-2.05,2.01-2.05
	S-285.51,311.43-285.51,312.53z M-287.51,316.28v0.27l-7.99,1.94l4.01-6.95h0.44c0,0.05-0.01,0.101-0.01,0.149
	C-291.05,313.9-289.55,315.75-287.51,316.28z"/>
</svg>
