<?xml version="1.0" encoding="utf-8"?>
<!-- Generator: Adobe Illustrator 16.0.4, SVG Export Plug-In . SVG Version: 6.00 Build 0)  -->
<!DOCTYPE svg PUBLIC "-//W3C//DTD SVG 1.1//EN" "http://www.w3.org/Graphics/SVG/1.1/DTD/svg11.dtd">
<svg version="1.1" id="Layer_1" xmlns:ev="http://www.w3.org/2001/xml-events"
	 xmlns="http://www.w3.org/2000/svg" xmlns:xlink="http://www.w3.org/1999/xlink" x="0px" y="0px" width="16px" height="16px"
	 viewBox="-299.5 300.5 16 16" enable-background="new -299.5 300.5 16 16" xml:space="preserve">
<path fill="#878C90" d="M-291.5,316.5c-4.42,0-8-3.58-8-8s3.58-8,8-8s8,3.58,8,8S-287.08,316.5-291.5,316.5z M-291.5,301.48
	c-3.87,0-7,3.14-7,7c0,3.869,3.14,7,7,7c3.87,0,7-3.131,7-7C-284.5,304.62-287.63,301.48-291.5,301.48z M-288.84,309.141h-0.301
	c0-0.041,0-0.07,0-0.101c0-1.47-1-2.7-2.359-3.06V305.8l5.33-1.3L-288.84,309.141z M-290.17,308.52c0,0.74-0.6,1.311-1.34,1.311
	s-1.34-0.57-1.34-1.311c0-0.739,0.6-1.359,1.34-1.359S-290.17,307.79-290.17,308.52z M-291.5,311.02v0.181l-5.33,1.3l2.67-4.641h0.3
	c0,0.041-0.01,0.07-0.01,0.101C-293.87,309.43-292.86,310.67-291.5,311.02z"/>
</svg>
