<?xml version="1.0" encoding="utf-8"?>
<!-- Generator: Adobe Illustrator 16.0.4, SVG Export Plug-In . SVG Version: 6.00 Build 0)  -->
<!DOCTYPE svg PUBLIC "-//W3C//DTD SVG 1.1//EN" "http://www.w3.org/Graphics/SVG/1.1/DTD/svg11.dtd">
<svg version="1.1" id="Layer_1" xmlns:ev="http://www.w3.org/2001/xml-events"
	 xmlns="http://www.w3.org/2000/svg" xmlns:xlink="http://www.w3.org/1999/xlink" x="0px" y="0px" width="48px" height="48px"
	 viewBox="-3 -1 48 48" enable-background="new -3 -1 48 48" xml:space="preserve">
<path fill="#878C90" d="M40,46H2c-1.1,0-2-0.89-2-2v-6c0-1.11,0.9-2,2-2h38c1.11,0,2,0.89,2,2v6C42,45.11,41.11,46,40,46z M40,34H2
	c-1.1,0-2-0.89-2-2v-6c0-1.11,0.9-2,2-2h38c1.11,0,2,0.89,2,2v6C42,33.11,41.11,34,40,34z M40,22H2c-1.1,0-2-0.9-2-2v-6
	c0-1.1,0.9-2,2-2h38c1.11,0,2,0.9,2,2v6C42,21.1,41.11,22,40,22z M40,10H2c-1.1,0-2-0.9-2-2V2c0-1.1,0.9-2,2-2h38c1.11,0,2,0.9,2,2
	v6C42,9.1,41.11,10,40,10z"/>
</svg>
