<?xml version="1.0" encoding="utf-8"?>
<!-- Generator: Adobe Illustrator 16.0.4, SVG Export Plug-In . SVG Version: 6.00 Build 0)  -->
<!DOCTYPE svg PUBLIC "-//W3C//DTD SVG 1.1//EN" "http://www.w3.org/Graphics/SVG/1.1/DTD/svg11.dtd">
<svg version="1.1" id="Layer_1" xmlns:ev="http://www.w3.org/2001/xml-events"
	 xmlns="http://www.w3.org/2000/svg" xmlns:xlink="http://www.w3.org/1999/xlink" x="0px" y="0px" width="16px" height="16px"
	 viewBox="-299.5 300.5 16 16" enable-background="new -299.5 300.5 16 16" xml:space="preserve">
<path fill="#878C90" d="M-284.641,314.5h-13.719c-0.49,0-1.14-0.62-1.14-1.09v-0.971l6.74-3.649l1.21,0.649l1.2-0.659l6.85,3.88
	v0.75C-283.5,313.88-284.15,314.5-284.641,314.5z M-283.5,305.01v6.75l-5.99-3.449L-283.5,305.01z M-291.56,308.48l-7.94-4.301
	v-0.59c0-0.47,0.65-1.09,1.14-1.09h13.709c0.5,0,1.15,0.62,1.15,1.09v0.891l-0.2-0.33L-291.56,308.48z M-299.5,311.48v-6.33
	l5.85,3.17L-299.5,311.48z"/>
</svg>
