<?xml version="1.0" encoding="utf-8"?>
<!-- Generator: Adobe Illustrator 16.0.4, SVG Export Plug-In . SVG Version: 6.00 Build 0)  -->
<!DOCTYPE svg PUBLIC "-//W3C//DTD SVG 1.1//EN" "http://www.w3.org/Graphics/SVG/1.1/DTD/svg11.dtd">
<svg version="1.1" id="Layer_1" xmlns="http://www.w3.org/2000/svg" xmlns:xlink="http://www.w3.org/1999/xlink" x="0px" y="0px"
	 width="24px" height="24px" viewBox="0 0 24 24" enable-background="new 0 0 24 24" xml:space="preserve">
<path fill-rule="evenodd" clip-rule="evenodd" fill="#878C90" d="M22.29,21H1.71C0.97,21,0,20.07,0,19.36v-1.45l10.11-5.47
	l1.81,0.98l1.8-0.99L24,18.24v1.12C24,20.07,23.03,21,22.29,21z M24,6.77v10.12l-8.98-5.17L24,6.77z M11.92,11.97L0,5.53V4.64
	C0,3.93,0.97,3,1.71,3h20.57C23.03,3,24,3.93,24,4.64v1.33l-0.3-0.49L11.92,11.97z M0,16.46V6.97l8.77,4.75L0,16.46z"/>
</svg>
