<?xml version="1.0" encoding="utf-8"?>
<!-- Generator: Adobe Illustrator 16.0.4, SVG Export Plug-In . SVG Version: 6.00 Build 0)  -->
<!DOCTYPE svg PUBLIC "-//W3C//DTD SVG 1.1//EN" "http://www.w3.org/Graphics/SVG/1.1/DTD/svg11.dtd">
<svg version="1.1" id="Layer_1" xmlns:ev="http://www.w3.org/2001/xml-events"
	 xmlns="http://www.w3.org/2000/svg" xmlns:xlink="http://www.w3.org/1999/xlink" x="0px" y="0px" width="24px" height="24px"
	 viewBox="-299.5 300.5 24 24" enable-background="new -299.5 300.5 24 24" xml:space="preserve">
<path fill="#878C90" d="M-277.21,324.5h-18.09c0.01-0.01-4.2-4.189-4.2-4.2v-18.09c0-0.94,0.77-1.71,1.71-1.71h20.569
	c0.951,0,1.721,0.77,1.721,1.71v20.57C-275.5,323.73-276.27,324.5-277.21,324.5z M-296.01,302.5H-298v2h1.99V302.5z M-294.5,322.5
	h14v-8h-14V322.5z M-280.5,302.5h-14v6.29c0,0.899,0.83,1.71,1.75,1.71h10.48c0.92,0,1.77-0.6,1.77-1.5
	C-280.5,309-280.48,304.35-280.5,302.5z M-292.5,315.5h3v6h-3V315.5z"/>
</svg>
