<?xml version="1.0" encoding="utf-8"?>
<!-- Generator: Adobe Illustrator 16.0.4, SVG Export Plug-In . SVG Version: 6.00 Build 0)  -->
<!DOCTYPE svg PUBLIC "-//W3C//DTD SVG 1.1//EN" "http://www.w3.org/Graphics/SVG/1.1/DTD/svg11.dtd">
<svg version="1.1" id="Layer_1" xmlns:ev="http://www.w3.org/2001/xml-events"
	 xmlns="http://www.w3.org/2000/svg" xmlns:xlink="http://www.w3.org/1999/xlink" x="0px" y="0px" width="16px" height="16px"
	 viewBox="-299.5 300.5 16 16" enable-background="new -299.5 300.5 16 16" xml:space="preserve">
<path fill="#878C90" d="M-284.641,316.5h-12.569c-0.01,0.08-2.29-2.28-2.29-2.29v-12.569c0-0.631,0.51-1.141,1.14-1.141h13.709
	c0.641,0,1.15,0.51,1.15,1.141v13.709C-283.5,315.99-284.01,316.5-284.641,316.5z M-296.5,301.5h-2v2h2V301.5z M-286.52,301.48
	c0,0-5.01,0.01-8.99,0v4.819c0,0.67,0.5,1.21,1.12,1.21h6.74c0.621,0,1.121-0.54,1.121-1.21
	C-286.52,306.311-286.561,302.859-286.52,301.48z M-286.49,309.48h-9.02v6.029h9.02V309.48z M-292.5,314.5h-2v-4h2V314.5z"/>
</svg>
