<?xml version="1.0" encoding="utf-8"?>
<!-- Generator: Adobe Illustrator 16.0.4, SVG Export Plug-In . SVG Version: 6.00 Build 0)  -->
<!DOCTYPE svg PUBLIC "-//W3C//DTD SVG 1.1//EN" "http://www.w3.org/Graphics/SVG/1.1/DTD/svg11.dtd">
<svg version="1.1" id="Layer_1" xmlns="http://www.w3.org/2000/svg" xmlns:xlink="http://www.w3.org/1999/xlink" x="0px" y="0px"
	 width="24px" height="24px" viewBox="0 0 24 24" enable-background="new 0 0 24 24" xml:space="preserve">
<g>
	<g>
		<path fill-rule="evenodd" clip-rule="evenodd" fill="#878C90" d="M10.5,15.1c-0.78,0-1.41,0.63-1.41,1.41
			c0,0.78,0.63,1.41,1.41,1.41s1.41-0.63,1.41-1.41C11.91,15.73,11.28,15.1,10.5,15.1z M17.07,15.1h-1.33
			c-0.12-0.46-0.31-0.9-0.54-1.3l0.94-0.94c0.37-0.37,0.37-0.96,0-1.33l-0.66-0.66c-0.37-0.37-0.96-0.37-1.33,0l-0.94,0.94
			c-0.4-0.23-0.84-0.42-1.3-0.54V9.95c0-0.52-0.42-0.94-0.94-0.94h-0.94c-0.52,0-0.94,0.42-0.94,0.94v1.33
			c-0.46,0.12-0.9,0.31-1.3,0.54l-0.94-0.94c-0.37-0.37-0.96-0.37-1.33,0l-0.66,0.66c-0.37,0.37-0.37,0.96,0,1.33l0.94,0.94
			c-0.23,0.4-0.42,0.84-0.54,1.3H3.94C3.42,15.1,3,15.52,3,16.04v0.94c0,0.52,0.42,0.94,0.94,0.94h1.33c0.12,0.46,0.31,0.9,0.54,1.3
			l-0.94,0.94c-0.37,0.37-0.37,0.96,0,1.33l0.66,0.66c0.37,0.37,0.96,0.37,1.33,0l0.94-0.94c0.4,0.23,0.84,0.42,1.3,0.54v1.33
			c0,0.52,0.42,0.94,0.94,0.94h0.94c0.52,0,0.94-0.42,0.94-0.94v-1.33c0.46-0.12,0.9-0.3,1.3-0.54l0.94,0.94
			c0.37,0.37,0.96,0.37,1.33,0l0.66-0.66c0.37-0.37,0.37-0.96,0-1.33l-0.94-0.94c0.23-0.4,0.41-0.84,0.54-1.3h1.33
			c0.52,0,0.94-0.42,0.94-0.94v-0.94C18.01,15.52,17.59,15.1,17.07,15.1z M10.5,19.79c-1.81,0-3.28-1.47-3.28-3.28
			c0-1.81,1.47-3.28,3.28-3.28s3.28,1.47,3.28,3.28C13.79,18.33,12.32,19.79,10.5,19.79z M21.91,3.52C21.86,3.21,21.57,3,21.27,3.05
			l-0.79,0.13c-0.12-0.26-0.27-0.5-0.44-0.72l0.47-0.65c0.18-0.25,0.13-0.61-0.13-0.79l-0.46-0.33c-0.25-0.18-0.6-0.13-0.79,0.13
			l-0.47,0.65c-0.26-0.1-0.54-0.17-0.82-0.2l-0.13-0.79c-0.05-0.31-0.34-0.52-0.65-0.47L16.51,0.1C16.21,0.15,16,0.44,16.05,0.74
			l0.13,0.79c-0.26,0.12-0.5,0.27-0.72,0.44l-0.65-0.47c-0.25-0.18-0.6-0.13-0.79,0.13l-0.33,0.46c-0.18,0.25-0.13,0.61,0.13,0.79
			l0.65,0.47c-0.1,0.26-0.17,0.54-0.2,0.82L13.48,4.3c-0.31,0.05-0.52,0.34-0.47,0.65L13.1,5.5c0.05,0.31,0.34,0.52,0.65,0.47
			l0.79-0.13c0.12,0.26,0.27,0.5,0.44,0.72l-0.47,0.65C14.32,7.47,14.38,7.82,14.63,8l0.46,0.33c0.25,0.18,0.6,0.13,0.79-0.13
			l0.47-0.65c0.26,0.1,0.54,0.17,0.82,0.2l0.13,0.79c0.05,0.31,0.34,0.52,0.65,0.47l0.56-0.09c0.31-0.05,0.52-0.34,0.47-0.65
			l-0.13-0.79c0.26-0.12,0.5-0.27,0.72-0.44l0.65,0.47c0.25,0.18,0.6,0.13,0.79-0.13l0.33-0.46c0.18-0.25,0.13-0.61-0.13-0.79
			l-0.65-0.47c0.1-0.26,0.17-0.54,0.2-0.82l0.79-0.13c0.31-0.05,0.52-0.34,0.47-0.65L21.91,3.52z M17.82,6.46
			c-1.08,0.17-2.09-0.56-2.26-1.64c-0.17-1.08,0.56-2.09,1.64-2.26c1.08-0.17,2.09,0.56,2.26,1.64S18.89,6.29,17.82,6.46z
			 M17.37,3.67c-0.46,0.07-0.78,0.51-0.7,0.97c0.07,0.46,0.51,0.78,0.97,0.7s0.78-0.51,0.7-0.97C18.27,3.92,17.83,3.6,17.37,3.67z"
			/>
	</g>
</g>
</svg>
