<?xml version="1.0" encoding="utf-8"?>
<!-- Generator: Adobe Illustrator 16.0.4, SVG Export Plug-In . SVG Version: 6.00 Build 0)  -->
<!DOCTYPE svg PUBLIC "-//W3C//DTD SVG 1.1//EN" "http://www.w3.org/Graphics/SVG/1.1/DTD/svg11.dtd">
<svg version="1.1" id="Layer_1" xmlns:ev="http://www.w3.org/2001/xml-events"
	 xmlns="http://www.w3.org/2000/svg" xmlns:xlink="http://www.w3.org/1999/xlink" x="0px" y="0px" width="16px" height="16px"
	 viewBox="-299.5 300.5 16 16" enable-background="new -299.5 300.5 16 16" xml:space="preserve">
<path fill="#878C90" d="M-283.863,304.16l-0.611,0.1c-0.02,0.219-0.07,0.438-0.15,0.64l0.5,0.358c0.201,0.141,0.24,0.42,0.101,0.608
	l-0.26,0.36c-0.14,0.199-0.421,0.239-0.611,0.1l-0.5-0.369c-0.17,0.14-0.36,0.25-0.561,0.349l0.101,0.609
	c0.04,0.24-0.12,0.46-0.361,0.5l-0.43,0.07c-0.24,0.038-0.46-0.121-0.5-0.36l-0.1-0.609c-0.221-0.02-0.441-0.08-0.642-0.15
	l-0.36,0.5c-0.141,0.2-0.42,0.239-0.611,0.1l-0.371-0.259c-0.199-0.14-0.24-0.419-0.1-0.609l0.36-0.499
	c-0.14-0.17-0.25-0.359-0.34-0.559l-0.61,0.099c-0.241,0.03-0.461-0.129-0.5-0.369l-0.071-0.429c-0.04-0.24,0.121-0.46,0.36-0.499
	l0.612-0.1c0.029-0.23,0.09-0.44,0.159-0.649l-0.5-0.36c-0.201-0.139-0.24-0.419-0.101-0.609l0.261-0.349
	c0.14-0.199,0.42-0.24,0.611-0.1l0.5,0.358c0.17-0.139,0.359-0.249,0.56-0.339l-0.101-0.618c-0.039-0.24,0.121-0.46,0.362-0.499
	l0.43-0.07c0.24-0.04,0.459,0.119,0.5,0.358l0.1,0.609c0.221,0.021,0.44,0.07,0.641,0.149l0.36-0.499
	c0.141-0.199,0.42-0.239,0.61-0.1l0.351,0.26c0.201,0.14,0.241,0.419,0.101,0.609l-0.372,0.499c0.141,0.17,0.25,0.359,0.351,0.559
	l0.611-0.1c0.24-0.04,0.459,0.12,0.5,0.36l0.07,0.429C-283.453,303.9-283.623,304.119-283.863,304.16z M-287.236,302.482
	c-0.841,0.13-1.412,0.919-1.271,1.758c0.14,0.838,0.921,1.408,1.762,1.268c0.841-0.13,1.402-0.919,1.271-1.757
	C-285.605,302.922-286.396,302.353-287.236,302.482z M-286.886,304.649c-0.36,0.06-0.69-0.189-0.751-0.55
	c-0.06-0.358,0.19-0.698,0.542-0.749c0.36-0.06,0.7,0.19,0.751,0.55C-286.285,304.25-286.526,304.589-286.886,304.649z
	 M-289.849,307.364c0.27,0.27,0.27,0.7,0,0.969l-0.691,0.688c0.17,0.301,0.31,0.62,0.4,0.948h0.972c0.38,0,0.69,0.311,0.69,0.689
	v0.688c0,0.381-0.31,0.689-0.69,0.689h-0.981c-0.09,0.34-0.22,0.659-0.39,0.949l0.691,0.688c0.27,0.271,0.27,0.699,0,0.97
	l-0.491,0.489c-0.271,0.27-0.701,0.27-0.972,0l-0.69-0.689c-0.291,0.17-0.611,0.3-0.951,0.39v0.979c0,0.379-0.311,0.688-0.691,0.688
	h-0.69c-0.381,0-0.691-0.31-0.691-0.688v-0.97c-0.341-0.089-0.661-0.219-0.951-0.398l-0.691,0.689c-0.27,0.27-0.701,0.27-0.971,0
	l-0.49-0.489c-0.271-0.271-0.271-0.699,0-0.97l0.691-0.688c-0.17-0.29-0.311-0.619-0.4-0.949h-0.971
	c-0.38,0-0.691-0.309-0.691-0.689v-0.688c0-0.379,0.311-0.689,0.691-0.689h0.981c0.09-0.339,0.22-0.657,0.391-0.948l-0.681-0.688
	c-0.27-0.269-0.27-0.699,0-0.969l0.491-0.488c0.271-0.271,0.701-0.271,0.971,0l0.691,0.688c0.291-0.169,0.611-0.3,0.951-0.39v-0.979
	c0-0.379,0.3-0.688,0.681-0.688h0.69c0.38,0,0.691,0.31,0.691,0.688v0.979c0.34,0.09,0.661,0.221,0.951,0.399l0.69-0.688
	c0.271-0.271,0.701-0.271,0.972,0L-289.849,307.364z M-293.984,308.603c-1.331,0-2.412,1.078-2.412,2.396
	c0,1.328,1.081,2.406,2.412,2.406c1.332,0,2.413-1.078,2.413-2.406C-291.581,309.671-292.663,308.603-293.984,308.603z
	 M-293.984,312.027c-0.57,0-1.031-0.459-1.031-1.028s0.46-1.029,1.031-1.029c0.571,0,1.032,0.46,1.032,1.029
	S-293.413,312.027-293.984,312.027z"/>
</svg>
