<?xml version="1.0" encoding="utf-8"?>
<!-- Generator: Adobe Illustrator 16.0.4, SVG Export Plug-In . SVG Version: 6.00 Build 0)  -->
<!DOCTYPE svg PUBLIC "-//W3C//DTD SVG 1.1//EN" "http://www.w3.org/Graphics/SVG/1.1/DTD/svg11.dtd">
<svg version="1.1" id="Layer_1" xmlns="http://www.w3.org/2000/svg" xmlns:xlink="http://www.w3.org/1999/xlink" x="0px" y="0px"
	 width="24px" height="24px" viewBox="0 0 24 24" enable-background="new 0 0 24 24" xml:space="preserve">
<g>
	<g>
		<path fill-rule="evenodd" clip-rule="evenodd" fill="#878C90" d="M17.5,15l-5.65,2.12C11.58,17.05,11.3,17,11,17
			c-1.93,0-3.49,1.57-3.49,3.51c0,1.94,1.56,3.51,3.49,3.51s3.49-1.57,3.49-3.51c0-0.07-0.02-0.14-0.02-0.21L17.5,15z M12.5,0
			c-5.52,0-10,4.48-10,10c0,3.51,1.81,6.6,4.55,8.38C7.81,16.97,9.29,16,11,16c0.28,0,0.55,0.03,0.81,0.08L19.5,13l-3.1,6.2
			c3.58-1.52,6.1-5.06,6.1-9.2C22.5,4.48,18.02,0,12.5,0z M12.5,14c-2.21,0-4-1.79-4-4s1.79-4,4-4s4,1.79,4,4S14.71,14,12.5,14z
			 M12.5,8c-1.1,0-2,0.9-2,2s0.9,2,2,2s2-0.9,2-2S13.6,8,12.5,8z"/>
	</g>
</g>
</svg>
