<?xml version="1.0" encoding="utf-8"?>
<!-- Generator: Adobe Illustrator 16.0.4, SVG Export Plug-In . SVG Version: 6.00 Build 0)  -->
<!DOCTYPE svg PUBLIC "-//W3C//DTD SVG 1.1//EN" "http://www.w3.org/Graphics/SVG/1.1/DTD/svg11.dtd">
<svg version="1.1" id="Layer_1" xmlns:ev="http://www.w3.org/2001/xml-events"
	 xmlns="http://www.w3.org/2000/svg" xmlns:xlink="http://www.w3.org/1999/xlink" x="0px" y="0px" width="48px" height="48px"
	 viewBox="1 1 48 48" enable-background="new 1 1 48 48" xml:space="preserve">
<path fill="#878C90" d="M25,49.02C11.74,49.02,0.99,38.27,0.99,25C0.99,11.74,11.74,0.99,25,0.99S49.01,11.74,49.01,25
	C49.02,38.27,38.27,49.02,25,49.02z M25.58,38.52c1.66,0,3-1.37,3-3.07c0-1.69-1.34-3.07-3-3.07s-3,1.37-3,3.07
	S23.92,38.52,25.58,38.52z M31.92,12.37c-1.77-1.36-3.99-2.05-6.67-2.05c-2.03,0-3.75,0.48-5.15,1.44c-2.21,1.5-3.39,4.05-3.53,7.65
	c0,2.42,5.13,2.49,5.13,0c0,0.05,0.29-2.06,0.86-3.03c0.57-0.97,1.54-1.46,2.91-1.46c1.39,0,2.35,0.4,2.88,1.18
	c0.53,0.79,0.79,1.66,0.79,2.62c0,0.83-0.24,1.6-0.71,2.29c-0.26,0.4-0.6,0.78-1.03,1.12l-1.29,1.08c-1.27,1.06-2.06,2-2.37,2.81
	c-0.31,0.81-0.57,3.17-0.57,3.2c0,2.43,4.81,2.12,4.81,0c0-0.07,0.09-0.53,0.23-1.01c0.22-0.76,0.68-1.42,1.36-1.99l1.26-1.04
	c1.28-1.06,2.14-1.93,2.58-2.61c0.77-1.12,1.15-2.51,1.15-4.15C34.58,15.75,33.69,13.73,31.92,12.37z"/>
</svg>
