<?xml version="1.0" encoding="utf-8"?>
<!-- Generator: Adobe Illustrator 16.0.4, SVG Export Plug-In . SVG Version: 6.00 Build 0)  -->
<!DOCTYPE svg PUBLIC "-//W3C//DTD SVG 1.1//EN" "http://www.w3.org/Graphics/SVG/1.1/DTD/svg11.dtd">
<svg version="1.1" id="Layer_1" xmlns:ev="http://www.w3.org/2001/xml-events"
	 xmlns="http://www.w3.org/2000/svg" xmlns:xlink="http://www.w3.org/1999/xlink" x="0px" y="0px" width="16px" height="16px"
	 viewBox="-299.5 300.5 16 16" enable-background="new -299.5 300.5 16 16" xml:space="preserve">
<path fill="#878C90" d="M-284.17,313.491c0.37,0,0.67,0.3,0.67,0.67v0.669c0,0.37-0.3,0.67-0.67,0.67h-14h-0.66
	c-0.37-0.01-0.67-0.31-0.67-0.68v-0.669V302.16c0-0.36,0.3-0.66,0.67-0.66h0.67c0.36,0,0.66,0.3,0.66,0.67v6.405l2.77-2.768
	c0.02-0.021,0.05-0.011,0.07-0.03c0.07-0.05,0.15-0.091,0.23-0.101c0.04,0,0.07,0,0.11,0c0.08,0.01,0.15,0.03,0.22,0.08l2.959,1.989
	l3.031-3.008c0.01-0.01,0.029-0.01,0.039-0.021c0.08-0.069,0.18-0.11,0.28-0.11c0.03,0,0.05,0,0.08,0
	c0.09,0.011,0.181,0.031,0.26,0.091l0.05,0.03h0.01l0,0l3.66,2.777c0.221,0.17,0.26,0.479,0.101,0.699
	c-0.17,0.22-0.479,0.26-0.7,0.101l-3.37-2.559l-3,2.979l0,0c-0.1,0.1-0.22,0.149-0.35,0.149c-0.011,0-0.021,0-0.03,0
	c-0.08-0.01-0.16-0.03-0.24-0.08l-2.979-1.999l-3.2,3.198v3.497H-284.17z"/>
</svg>
