<?xml version="1.0" encoding="utf-8"?>
<!-- Generator: Adobe Illustrator 16.0.4, SVG Export Plug-In . SVG Version: 6.00 Build 0)  -->
<!DOCTYPE svg PUBLIC "-//W3C//DTD SVG 1.1//EN" "http://www.w3.org/Graphics/SVG/1.1/DTD/svg11.dtd">
<svg version="1.1" id="Layer_1" xmlns="http://www.w3.org/2000/svg" xmlns:xlink="http://www.w3.org/1999/xlink" x="0px" y="0px"
	 width="24px" height="24px" viewBox="0 0 24 24" enable-background="new 0 0 24 24" xml:space="preserve">
<g>
	<g>
		<path fill-rule="evenodd" clip-rule="evenodd" fill="#878C90" d="M23,20H3v-5.02l4.8-4.8l4.48,3.01c0,0,0.01,0,0.01,0
			c0.06,0.04,0.13,0.07,0.2,0.08c0.04,0.01,0.08,0.02,0.12,0.03c0.03,0,0.07,0,0.1,0c0.08,0,0.15-0.02,0.22-0.04
			c0.01,0,0.02-0.01,0.03-0.01c0.09-0.04,0.16-0.09,0.23-0.15c0,0,0,0,0,0l4.49-4.47l5.06,3.84c0.33,0.25,0.8,0.19,1.05-0.14
			c0.25-0.33,0.19-0.8-0.14-1.05l-5.49-4.17c0,0,0,0,0-0.01c-0.01-0.01-0.02-0.01-0.03-0.02l-0.05-0.04
			c-0.01-0.01-0.02-0.01-0.02-0.01c-0.08-0.05-0.15-0.09-0.24-0.12c-0.01,0-0.01,0-0.02,0c-0.09-0.02-0.18-0.03-0.27-0.01
			c-0.01,0-0.01,0-0.02,0c-0.08,0.01-0.17,0.04-0.24,0.08C17.25,6.99,17.24,7,17.22,7.01c-0.04,0.03-0.09,0.05-0.13,0.08l-4.54,4.52
			L8.22,8.7c0,0,0,0,0,0C8.21,8.69,8.2,8.69,8.19,8.68L8.11,8.63c0,0,0,0,0,0C7.81,8.43,7.42,8.44,7.16,8.7L3,12.86V3
			c0-0.55-0.45-1-1-1H1C0.45,2,0,2.45,0,3v19c0,0.55,0.45,1,1,1h22c0.55,0,1-0.45,1-1v-1C24,20.45,23.55,20,23,20z"/>
	</g>
</g>
</svg>
