<?xml version="1.0" encoding="utf-8"?>
<!-- Generator: Adobe Illustrator 16.0.4, SVG Export Plug-In . SVG Version: 6.00 Build 0)  -->
<!DOCTYPE svg PUBLIC "-//W3C//DTD SVG 1.1//EN" "http://www.w3.org/Graphics/SVG/1.1/DTD/svg11.dtd">
<svg version="1.1" id="Layer_1" xmlns="http://www.w3.org/2000/svg" xmlns:xlink="http://www.w3.org/1999/xlink" x="0px" y="0px"
	 width="24px" height="24px" viewBox="0 0 24 24" enable-background="new 0 0 24 24" xml:space="preserve">
<g>
	<g>
		<path fill="#878C90" d="M12.05,15.04l-0.9,0.9c0.04,0.73-0.23,1.51-0.83,2.11l-2.87,2.89c-1.03,1.04-2.62,1.13-3.53,0.22
			l-1.11-1.11c-0.92-0.92-0.82-2.51,0.21-3.55l2.87-2.88c0.6-0.61,1.39-0.88,2.13-0.83l0.94-0.94l0.74-0.75
			c-1.44-0.84-3.3-0.65-4.53,0.58l-4.08,4.1c-1.47,1.47-1.47,3.86,0,5.34l1.77,1.78c1.47,1.47,3.85,1.47,5.31,0l4.08-4.1
			c1.23-1.24,1.41-3.11,0.58-4.55L12.05,15.04z M22.9,2.88l-1.77-1.78c-1.47-1.47-3.84-1.47-5.31,0l-4.08,4.1
			c-1.21,1.22-1.41,3.05-0.62,4.48l1.71-1.72c-0.02-0.71,0.25-1.46,0.83-2.04l2.88-2.89c1.03-1.04,2.61-1.14,3.53-0.22l1.11,1.11
			c0.92,0.92,0.82,2.51-0.21,3.55l-2.87,2.89c-0.62,0.63-1.45,0.9-2.2,0.83l-1.66,1.67c1.45,0.88,3.35,0.71,4.6-0.55l4.08-4.1
			C24.37,6.75,24.37,4.36,22.9,2.88z M8.25,16.44c0.61,0.56,0.75,0.25,1,0l7.17-7.2c0.19-0.23,0.53-0.48,0.01-1.01
			c-0.64-0.65-1.07-1.27-1.67-0.66l-7.17,7.2C6.99,15.37,7.58,15.83,8.25,16.44z"/>
	</g>
</g>
</svg>
