<?xml version="1.0" encoding="utf-8"?>
<!-- Generator: Adobe Illustrator 16.0.4, SVG Export Plug-In . SVG Version: 6.00 Build 0)  -->
<!DOCTYPE svg PUBLIC "-//W3C//DTD SVG 1.1//EN" "http://www.w3.org/Graphics/SVG/1.1/DTD/svg11.dtd">
<svg version="1.1" id="Layer_1" xmlns:ev="http://www.w3.org/2001/xml-events"
	 xmlns="http://www.w3.org/2000/svg" xmlns:xlink="http://www.w3.org/1999/xlink" x="0px" y="0px" width="48px" height="48px"
	 viewBox="1 1 48 48" enable-background="new 1 1 48 48" xml:space="preserve">
<path fill="#0572CE" d="M46.85,17.39l-8.17,8.2c-3.07,3-6.49,3.02-9.26,1.14l3.37-3.38c1.51,0.15,3.16-0.4,4.42-1.66l5.75-5.77
	c2.07-2.08,2.67-4.81,0.43-7.1L41.18,6.6c-2.05-2.33-5-1.65-7.07,0.43l-5.75,5.77c-1.15,1.16-1.7,2.66-1.66,4.08l-3.49,3.5
	c-1.79-2.91-1.86-6.69,1.29-9.03l8.17-8.2c2.94-2.95,7.7-2.95,10.64,0l3.55,3.56C49.79,9.65,49.79,14.44,46.85,17.39z M17.06,34.47
	c-1.35-1.23-2.53-2.15-1.32-3.36l15.52-15.58c1.21-1.21,2.06,0.03,3.35,1.33c1.05,1.06,0.38,1.57-0.01,2.02L19.07,34.46
	C18.57,34.97,18.29,35.58,17.06,34.47z M17.08,26.53c-1.47-0.1-3.05,0.45-4.26,1.66l-5.75,5.78c-2.83,2.71-2.26,5.26-0.43,7.1
	l2.21,2.22c2.23,2.1,4.17,2.04,7.07-0.43l5.75-5.78c1.2-1.2,1.74-2.77,1.66-4.23l3.46-3.48c1.92,3.03,1.3,6.97-1.24,9.18l-8.16,8.2
	c-2.94,2.95-7.7,2.95-10.64,0L3.2,43.19c-2.94-2.95-2.94-7.73,0-10.68l8.17-8.2c2.25-1.98,5.81-3.3,9.12-1.22l-1.67,1.68
	L17.08,26.53z"/>
</svg>
