<?xml version="1.0" encoding="utf-8"?>
<!-- Generator: Adobe Illustrator 16.0.4, SVG Export Plug-In . SVG Version: 6.00 Build 0)  -->
<!DOCTYPE svg PUBLIC "-//W3C//DTD SVG 1.1//EN" "http://www.w3.org/Graphics/SVG/1.1/DTD/svg11.dtd">
<svg version="1.1" id="Layer_1" xmlns:ev="http://www.w3.org/2001/xml-events"
	 xmlns="http://www.w3.org/2000/svg" xmlns:xlink="http://www.w3.org/1999/xlink" x="0px" y="0px" width="48px" height="48px"
	 viewBox="0 -4.5 48 48" enable-background="new 0 -4.5 48 48" xml:space="preserve">
<path fill="#0572CE" d="M47.98,29.55V9.58l-15.73,9.99L47.98,29.55z M0.4,36.31c0.7,1.55,2.28,2.64,4.12,2.64h38.97
	c1.83,0,3.41-1.08,4.11-2.62c0.25-0.55,0.39-1.76,0.39-2.41L29.15,21.97L24,25.24l-5.16-3.28L0.02,33.92
	C0.02,34.55,0.15,35.76,0.4,36.31z M0.02,9.58v19.98l15.73-9.99L0.02,9.58z M4.51,0.05c-1.84,0-3.42,1.08-4.12,2.64
	C0.15,3.23,0.02,4.64,0.02,5.27L24,20.5L47.98,5.27c0-0.64-0.14-2.06-0.39-2.6c-0.7-1.54-2.28-2.62-4.11-2.62H4.51z"/>
</svg>
