<?xml version="1.0" encoding="utf-8"?>
<!-- Generator: Adobe Illustrator 16.0.4, SVG Export Plug-In . SVG Version: 6.00 Build 0)  -->
<!DOCTYPE svg PUBLIC "-//W3C//DTD SVG 1.1//EN" "http://www.w3.org/Graphics/SVG/1.1/DTD/svg11.dtd">
<svg version="1.1" id="Layer_1" xmlns="http://www.w3.org/2000/svg" xmlns:xlink="http://www.w3.org/1999/xlink" x="0px" y="0px"
	 width="24px" height="24px" viewBox="0 0 24 24" enable-background="new 0 0 24 24" xml:space="preserve">
<g>
	<g>
		<path fill-rule="evenodd" clip-rule="evenodd" fill="#878C90" d="M17.59,10.1c-0.71,0.06-1.44-0.17-1.98-0.71
			s-0.77-1.27-0.71-1.98C14.35,6.95,14,6.27,14,5.5s0.35-1.45,0.9-1.91c-0.06-0.71,0.17-1.44,0.71-1.98c0.3-0.3,0.66-0.5,1.04-0.61
			H6C5.45,1,5,1.45,5,2v17c0,0.55,0.45,1,1,1h13c0.55,0,1-0.45,1-1v-8.05C19.84,10.98,19.67,11,19.5,11
			C18.73,11,18.05,10.65,17.59,10.1z M4,20V5H2C1.45,5,1,5.45,1,6v17c0,0.55,0.45,1,1,1h13c0.55,0,1-0.45,1-1v-2H5
			C4.45,21,4,20.55,4,20z M23.22,4.75h-1.94l1.37-1.37c0.29-0.29,0.29-0.77,0-1.06c-0.29-0.29-0.77-0.29-1.06,0l-1.37,1.37V1.75
			c0-0.41-0.34-0.75-0.75-0.75s-0.75,0.34-0.75,0.75v1.94l-1.37-1.37c-0.29-0.29-0.77-0.29-1.06,0c-0.29,0.29-0.29,0.77,0,1.06
			l1.37,1.37h-1.94c-0.41,0-0.75,0.34-0.75,0.75s0.34,0.75,0.75,0.75h1.94l-1.37,1.37c-0.29,0.29-0.29,0.77,0,1.06s0.77,0.29,1.06,0
			l1.37-1.37v1.94c0,0.41,0.34,0.75,0.75,0.75s0.75-0.34,0.75-0.75V7.31l1.37,1.37c0.29,0.29,0.77,0.29,1.06,0s0.29-0.77,0-1.06
			l-1.37-1.37h1.94c0.41,0,0.75-0.34,0.75-0.75S23.63,4.75,23.22,4.75z"/>
	</g>
</g>
</svg>
