<?xml version="1.0" encoding="utf-8"?>
<!-- Generator: Adobe Illustrator 16.0.4, SVG Export Plug-In . SVG Version: 6.00 Build 0)  -->
<!DOCTYPE svg PUBLIC "-//W3C//DTD SVG 1.1//EN" "http://www.w3.org/Graphics/SVG/1.1/DTD/svg11.dtd">
<svg version="1.1" id="Layer_1" xmlns="http://www.w3.org/2000/svg" xmlns:xlink="http://www.w3.org/1999/xlink" x="0px" y="0px"
	 width="24px" height="24px" viewBox="0 0 24 24" enable-background="new 0 0 24 24" xml:space="preserve">
<g>
	<g>
		<path fill-rule="evenodd" clip-rule="evenodd" fill="#878C90" d="M22.22,3.75h-1.94l1.37-1.37c0.29-0.29,0.29-0.77,0-1.06
			c-0.29-0.29-0.77-0.29-1.06,0l-1.37,1.37V0.75c0-0.41-0.34-0.75-0.75-0.75s-0.75,0.34-0.75,0.75v1.94l-1.37-1.37
			c-0.29-0.29-0.77-0.29-1.06,0c-0.29,0.29-0.29,0.77,0,1.06l1.37,1.37h-1.94c-0.41,0-0.75,0.34-0.75,0.75s0.34,0.75,0.75,0.75h1.94
			l-1.37,1.37c-0.29,0.29-0.29,0.77,0,1.06s0.77,0.29,1.06,0l1.37-1.37v1.94c0,0.41,0.34,0.75,0.75,0.75s0.75-0.34,0.75-0.75V6.31
			l1.37,1.37c0.29,0.29,0.77,0.29,1.06,0s0.29-0.77,0-1.06l-1.37-1.37h1.94c0.41,0,0.75-0.34,0.75-0.75S22.63,3.75,22.22,3.75z
			 M16.59,9.1c-0.71,0.06-1.44-0.17-1.98-0.71s-0.77-1.27-0.71-1.98C13.35,5.95,13,5.27,13,4.5s0.35-1.45,0.9-1.91
			c-0.06-0.71,0.17-1.44,0.71-1.98c0.3-0.3,0.66-0.5,1.04-0.61H1C0.45,0,0,0.45,0,1v22c0,0.55,0.45,1,1,1h17c0.55,0,1-0.45,1-1V9.95
			C18.84,9.98,18.67,10,18.5,10C17.73,10,17.05,9.65,16.59,9.1z"/>
	</g>
</g>
</svg>
