<?xml version="1.0" encoding="utf-8"?>
<!-- Generator: Adobe Illustrator 16.0.4, SVG Export Plug-In . SVG Version: 6.00 Build 0)  -->
<!DOCTYPE svg PUBLIC "-//W3C//DTD SVG 1.1//EN" "http://www.w3.org/Graphics/SVG/1.1/DTD/svg11.dtd">
<svg version="1.1" id="Layer_1" xmlns:ev="http://www.w3.org/2001/xml-events"
	 xmlns="http://www.w3.org/2000/svg" xmlns:xlink="http://www.w3.org/1999/xlink" x="0px" y="0px" width="16px" height="16px"
	 viewBox="-299.5 300.5 16 16" enable-background="new -299.5 300.5 16 16" xml:space="preserve">
<path fill="#878C90" d="M-284,304.5h-1.79l1.271,1.27c0.199,0.19,0.199,0.511,0,0.711c-0.201,0.199-0.51,0.189-0.711,0l-1.27-1.271
	V307c0,0.28-0.221,0.5-0.5,0.5s-0.5-0.22-0.5-0.5v-1.79l-1.27,1.271c-0.201,0.189-0.51,0.189-0.711,0
	c-0.199-0.19-0.199-0.511,0-0.711l1.271-1.27H-290c-0.279,0-0.5-0.22-0.5-0.5s0.221-0.5,0.5-0.5h1.79l-1.271-1.27
	c-0.199-0.19-0.199-0.511,0-0.711c0.201-0.199,0.51-0.189,0.711,0l1.27,1.271V301c0-0.28,0.221-0.5,0.5-0.5s0.5,0.22,0.5,0.5v1.79
	l1.27-1.271c0.201-0.189,0.51-0.189,0.711,0c0.199,0.19,0.199,0.511,0,0.711l-1.271,1.27h1.79c0.279,0,0.5,0.22,0.5,0.5
	S-283.721,304.5-284,304.5z M-288.54,300.5h0.14c-0.01,0.03-0.01,0.061-0.02,0.08C-288.46,300.561-288.5,300.52-288.54,300.5z
	 M-290.42,302.58c-0.62,0.189-1.08,0.74-1.08,1.42s0.46,1.23,1.08,1.42c-0.311,0.561-0.24,1.28,0.24,1.76
	c0.479,0.48,1.199,0.54,1.77,0.24c0.18,0.62,0.73,1.08,1.41,1.08c0.18,0,0.34-0.04,0.5-0.1v7.1c0,0.55-0.45,1-1,1h-11
	c-0.55,0-1-0.45-1-1v-14c0-0.55,0.45-1,1-1h8.8c-0.18,0.07-0.34,0.18-0.479,0.32C-290.66,301.3-290.73,302.02-290.42,302.58z"/>
</svg>
