<?xml version="1.0" encoding="utf-8"?>
<!-- Generator: Adobe Illustrator 16.0.4, SVG Export Plug-In . SVG Version: 6.00 Build 0)  -->
<!DOCTYPE svg PUBLIC "-//W3C//DTD SVG 1.1//EN" "http://www.w3.org/Graphics/SVG/1.1/DTD/svg11.dtd">
<svg version="1.1" id="Layer_1" xmlns="http://www.w3.org/2000/svg" xmlns:xlink="http://www.w3.org/1999/xlink" x="0px" y="0px"
	 width="16px" height="16px" viewBox="0 0 16 16" enable-background="new 0 0 16 16" xml:space="preserve">
<g>
	<g>
		<path fill-rule="evenodd" clip-rule="evenodd" fill="#878C90" d="M2,13V3H1C0.45,3,0,3.45,0,4v11c0,0.55,0.45,1,1,1h8
			c0.55,0,1-0.45,1-1v-1H3C2.45,14,2,13.55,2,13z M11.09,0h-0.13c0.04,0.02,0.08,0.06,0.12,0.08C11.08,0.05,11.08,0.02,11.09,0z
			 M11.07,6.93c-0.57,0.3-1.27,0.23-1.75-0.25C8.84,6.21,8.77,5.5,9.07,4.93C8.45,4.75,8,4.18,8,3.5s0.45-1.25,1.07-1.43
			C8.77,1.5,8.84,0.79,9.32,0.32C9.46,0.18,9.62,0.07,9.8,0H4C3.45,0,3,0.45,3,1v11c0,0.55,0.45,1,1,1h8c0.55,0,1-0.45,1-1V7.91
			C12.84,7.96,12.68,8,12.5,8C11.82,8,11.25,7.55,11.07,6.93z M15.5,3h-1.79l1.27-1.27c0.2-0.2,0.2-0.51,0-0.71
			c-0.2-0.2-0.51-0.2-0.71,0L13,2.29V0.5C13,0.22,12.78,0,12.5,0S12,0.22,12,0.5v1.79l-1.27-1.27c-0.2-0.2-0.51-0.2-0.71,0
			c-0.2,0.19-0.2,0.51,0,0.71L11.29,3H9.5C9.22,3,9,3.22,9,3.5C9,3.78,9.22,4,9.5,4h1.79l-1.27,1.27c-0.2,0.2-0.2,0.51,0,0.71
			s0.51,0.2,0.71,0L12,4.71V6.5C12,6.78,12.22,7,12.5,7S13,6.78,13,6.5V4.71l1.27,1.27c0.2,0.2,0.51,0.2,0.71,0s0.2-0.51,0-0.71
			L13.71,4h1.79C15.78,4,16,3.78,16,3.5C16,3.22,15.78,3,15.5,3z"/>
	</g>
</g>
</svg>
