<?xml version="1.0" encoding="utf-8"?>
<!-- Generator: Adobe Illustrator 16.0.4, SVG Export Plug-In . SVG Version: 6.00 Build 0)  -->
<!DOCTYPE svg PUBLIC "-//W3C//DTD SVG 1.1//EN" "http://www.w3.org/Graphics/SVG/1.1/DTD/svg11.dtd">
<svg version="1.1" id="Layer_1" xmlns:ev="http://www.w3.org/2001/xml-events"
	 xmlns="http://www.w3.org/2000/svg" xmlns:xlink="http://www.w3.org/1999/xlink" x="0px" y="0px" width="48px" height="48px"
	 viewBox="0.5 1 48 48" enable-background="new 0.5 1 48 48" xml:space="preserve">
<path fill="#0572CE" d="M47.07,47.49L47,47.56l-0.07,0.07c-1.69,1.49-4.3,1.44-5.93-0.14L26.75,31.96c2.55-1.58,3.31-2.84,4.78-4.98
	l15.39,14.75C48.55,43.32,48.61,45.86,47.07,47.49z M16.39,31.88c-8.78,0-15.89-6.91-15.89-15.44C0.5,7.91,7.62,1,16.39,1
	c8.78,0,15.9,6.91,15.9,15.44C32.29,24.96,25.17,31.88,16.39,31.88z M16.48,5.23c-6.42,0-11.62,5.05-11.62,11.29
	s5.2,11.29,11.62,11.29S28.1,22.75,28.1,16.52S22.9,5.23,16.48,5.23z"/>
</svg>
