<?xml version="1.0" encoding="utf-8"?>
<!-- Generator: Adobe Illustrator 16.0.4, SVG Export Plug-In . SVG Version: 6.00 Build 0)  -->
<!DOCTYPE svg PUBLIC "-//W3C//DTD SVG 1.1//EN" "http://www.w3.org/Graphics/SVG/1.1/DTD/svg11.dtd">
<svg version="1.1" id="Layer_1" xmlns="http://www.w3.org/2000/svg" xmlns:xlink="http://www.w3.org/1999/xlink" x="0px" y="0px"
	 width="16px" height="16px" viewBox="0 0 16 16" enable-background="new 0 0 16 16" xml:space="preserve">
<g>
	<g>
		<path fill-rule="evenodd" clip-rule="evenodd" fill="#878C90" d="M15,0H1C0.45,0,0,0.45,0,1v14c0,0.55,0.45,1,1,1h14
			c0.55,0,1-0.45,1-1V1C16,0.45,15.55,0,15,0z M3,15H1v-3h2V15z M3,11H1V8h2V11z M3,7H1V4h2V7z M3,3H1V1h2V3z M9,15H4v-3h5V15z
			 M9,11H4V8h5V11z M9,7H4V4h5V7z M15,15h-5v-3h5V15z M15,11h-5V8h5V11z M15,7h-5V4h5V7z M15,3H4V1h11V3z"/>
	</g>
</g>
</svg>
