<?xml version="1.0" encoding="utf-8"?>
<!-- Generator: Adobe Illustrator 16.0.4, SVG Export Plug-In . SVG Version: 6.00 Build 0)  -->
<!DOCTYPE svg PUBLIC "-//W3C//DTD SVG 1.1//EN" "http://www.w3.org/Graphics/SVG/1.1/DTD/svg11.dtd">
<svg version="1.1" id="Layer_1" xmlns="http://www.w3.org/2000/svg" xmlns:xlink="http://www.w3.org/1999/xlink" x="0px" y="0px"
	 width="24px" height="24px" viewBox="0 0 24 24" enable-background="new 0 0 24 24" xml:space="preserve">
<g>
	<g>
		<path fill-rule="evenodd" clip-rule="evenodd" fill="#878C90" d="M23,1H1C0.45,1,0,1.45,0,2v21c0,0.55,0.45,1,1,1h22
			c0.55,0,1-0.45,1-1V2C24,1.45,23.55,1,23,1z M6,22H3c-0.55,0-1-0.45-1-1v-3h4V22z M6,17H2v-4h4V17z M6,12H2V8h4V12z M6,7H2V4
			c0-0.55,0.45-1,1-1h3V7z M14,22H7v-4h7V22z M14,17H7v-4h7V17z M14,12H7V8h7V12z M22,21c0,0.55-0.45,1-1,1h-6v-4h7V21z M22,17h-7
			v-4h7V17z M22,12h-7V8h7V12z M22,7H7V3h14c0.55,0,1,0.45,1,1V7z"/>
	</g>
</g>
</svg>
